<svg
    xmlns="http://www.w3.org/2000/svg"
    viewBox="0 0 200 195.73"
    width="30"
    height="30"
>
    <g
        xmlns="http://www.w3.org/2000/svg"
        transform="matrix(-1 0 0 -1 200 195.73)"
    >
        <path
            fill="white"
            d="M101.322,263.928a9.186,9.186,0,0,0-9.248,9.18v36.708h-67.1a10.282,10.282,0,0,0-7.445,3.39,10.854,10.854,0,0,0-2.21,3.729,16.181,16.181,0,0,0-1.031,6.034v77.66a16.174,16.174,0,0,0,1.031,6.034,10.865,10.865,0,0,0,2.21,3.729,10.281,10.281,0,0,0,7.445,3.39h67.1v36.694a9.186,9.186,0,0,0,15.147,6.983l51.163-43.677h-2.305a9.994,9.994,0,0,0,8.6-4.99c.143-.235.113-.363.231-.584l46.159-39.42a9.186,9.186,0,0,0,0-13.981l-46.159-39.419c-.118-.221-.088-.347-.231-.583a10.008,10.008,0,0,0-8.6-4.99h2.305l-51.163-43.691a9.185,9.185,0,0,0-5.9-2.2Zm9.113,29.114,38.593,32.951a9.189,9.189,0,0,0,1.261.895,9.186,9.186,0,0,0,1.1,1.112l39.569,33.806L151.387,395.6a9.181,9.181,0,0,0-1.1,1.112,9.156,9.156,0,0,0-1.261.9l-38.593,32.951V404.588a9.186,9.186,0,0,0-9.18-9.18H32.666V328.19h68.588a9.186,9.186,0,0,0,9.18-9.194Z"
            transform="translate(-14.292 -263.927)"
        />
    </g>
</svg>
